<svg xmlns="http://www.w3.org/2000/svg" viewBox="0 0 64 64" fill="none">
  <rect width="64" height="64" rx="12" fill="#0A0A0A"/>
  <rect x="1" y="1" width="62" height="62" rx="11" stroke="#262626" stroke-width="2"/>
  <!-- BBS geometric glyph -->
  <path d="M16 18H28C33 18 36 21 36 25C36 28 34 30.5 30.5 31.5C34.5 32.5 37 35.5 37 39.5C37 44 33 46 28 46H16V18ZM23 24V29H27C29 29 30.5 28 30.5 26.5C30.5 25 29 24 27 24H23ZM23 35V40H28C30.5 40 31.5 39 31.5 37.5C31.5 36 30.5 35 28 35H23Z" fill="#F5F5F0"/>
  <circle cx="48" cy="22" r="4" fill="#2563EB"/>
  <path d="M42 42L48 36L48 44" stroke="#2563EB" stroke-width="2.5" stroke-linecap="round" stroke-linejoin="round"/>
</svg>